<svg width="24" height="24" viewBox="0 0 24 24" fill="none" xmlns="http://www.w3.org/2000/svg">
  <rect width="24" height="24" rx="4" fill="#98a2b3"/>
  <path d="M12 6.2c-3.2 0-5.8 2.6-5.8 5.8 0 2.56 1.66 4.73 3.96 5.5.29.05.4-.13.4-.28v-1.1c-1.61.35-1.95-.7-1.95-.7-.27-.67-.65-.85-.65-.85-.53-.36.04-.35.04-.35.58.04.89.6.89.6.52.9 1.36.64 1.7.49.05-.38.2-.64.37-.79-1.28-.15-2.63-.64-2.63-2.86 0-.63.23-1.15.6-1.55-.06-.15-.26-.75.06-1.56 0 0 .49-.16 1.6.59a5.5 5.5 0 0 1 2.9 0c1.11-.75 1.6-.59 1.6-.59.32.81.12 1.41.06 1.56.37.4.6.92.6 1.55 0 2.23-1.35 2.71-2.64 2.85.21.18.39.53.39 1.07v1.58c0 .15.1.33.4.28 2.3-.77 3.95-2.94 3.95-5.5 0-3.2-2.6-5.8-5.8-5.8Z" fill="#101828"/>
</svg>
